<?xml version="1.0" encoding="UTF-8"?>
<svg width="24px" height="24px" viewBox="0 0 24 24" version="1.1" xmlns="http://www.w3.org/2000/svg" xmlns:xlink="http://www.w3.org/1999/xlink">
    <title>dice-expand-24px</title>
    <g id="Page-1" stroke="none" stroke-width="1" fill="none" fill-rule="evenodd">
        <g id="dice-expand-24px-copy-2">
            <polygon id="Path" points="0 0 24 0 24 24 0 24"></polygon>
            <path d="M12.9894709,4.24805994 L18.9751344,7.59070303 C19.6079093,7.94407083 20,8.61211684 20,9.33687397 L20,15.6277079 C20,16.3491099 19.6114995,17.0146074 18.9833098,17.3692882 L13.0000603,20.7474775 C12.3910632,21.0913221 11.6466951,21.0920817 11.0369974,20.7494809 L5.02024689,17.3685533 C4.39006133,17.0144399 4,16.3478321 4,15.6249697 L4,9.32015804 C4,8.59242353 4.3952899,7.92212262 5.03213407,7.5699479 L11.0464706,4.24402074 C11.6513247,3.9095365 12.3860127,3.9110638 12.9894709,4.24805994 Z M12.0142536,5.95501986 L6,9.28090116 L6,15.6640753 L12.0167099,19.0449801 L18,15.6667679 L18,9.29770927 L12.0142536,5.95501986 Z" id="Combined-Shape" fill="#000000"></path>
            <text id="20" font-family="Arial-Black, Arial Black" font-size="7" font-weight="700" fill="#000000">
                <tspan x="7.33105469" y="15">20</tspan>
            </text>
        </g>
    </g>
</svg>