<?xml version="1.0" encoding="UTF-8"?>
<svg width="24px" height="24px" viewBox="0 0 24 24" version="1.1" xmlns="http://www.w3.org/2000/svg" xmlns:xlink="http://www.w3.org/1999/xlink">
    <title>Path</title>
    <defs>
        <path d="M0,5.63369187 L0,14.890695 C-4.01383168e-16,15.2394163 0.180615901,15.5632581 0.477309721,15.7465047 L8.45390968,20.6730816 C8.77827115,20.8734166 9.18801402,20.8731604 9.51212472,20.67242 L17.4682691,15.7447219 C17.7626449,15.5623981 17.9425487,15.2414818 17.9444932,14.8952227 L17.9966585,5.60637252 C17.9987194,5.23939904 17.8007649,4.90042593 17.4801394,4.72189577 L9.48934735,0.272477503 C9.18510812,0.103071565 8.81489188,0.103071565 8.51065265,0.272477503 L0.543721053,4.70860987 C0.20808108,4.89550031 -3.88253023e-16,5.24952754 0,5.63369187 Z" id="path-1"></path>
    </defs>
    <g id="Extensions" stroke="none" stroke-width="1" fill="none" fill-rule="evenodd">
        <g id="Tools-Expand-Copy-5">
            <polygon id="Path" points="0 0 24 0 24 24 0 24"></polygon>
            <g id="Group-8" transform="translate(3.000000, 2.000000)">
                <g id="Group">
                    <mask id="mask-2" fill="white">
                        <use xlink:href="#path-1"></use>
                    </mask>
                    <g id="Mask"></g>
                    <g mask="url(#mask-2)" stroke="#000000" stroke-linejoin="round" stroke-width="0.75">
                        <g transform="translate(-0.052941, 0.000000)">
                            <polygon id="Triangle" points="9.02647059 2.92329545 15.2394958 13.5426136 2.81344538 13.5426136"></polygon>
                            <polygon id="Path-5" points="9.02647059 2.92329545 15.2524257 13.5426136 18.0529412 5.04416172"></polygon>
                            <polygon id="Path-6" points="15.1808824 13.5475413 17.9943277 15.4517045 17.9943277 5.07102273"></polygon>
                            <polygon id="Path-7" points="15.2394958 13.6022727 9.0163651 21 2.81344538 13.6022727"></polygon>
                            <polygon id="Path-8" points="18.0529412 15.509146 9.02647059 21 15.2524257 13.6022727"></polygon>
                            <polygon id="Path-5" transform="translate(4.513235, 8.232955) scale(-1, 1) translate(-4.513235, -8.232955) " points="0 2.92329545 6.2259551 13.5426136 9.02647059 5.04416172"></polygon>
                            <polygon id="Path-6" transform="translate(1.465336, 10.261364) scale(-1, 1) translate(-1.465336, -10.261364) " points="0.0586134454 13.5475413 2.87205882 15.4517045 2.87205882 5.07102273"></polygon>
                            <polygon id="Path-8" transform="translate(4.513235, 17.301136) scale(-1, 1) translate(-4.513235, -17.301136) " points="9.02647059 15.509146 0 21 6.2259551 13.6022727"></polygon>
                            <polygon id="Path-9" points="9.03658576 2.90970796 9.02647059 0 18.0529412 5.04416172"></polygon>
                            <polygon id="Path-9" transform="translate(4.513235, 2.535511) scale(-1, 1) translate(-4.513235, -2.535511) " points="0.0101151686 2.90970796 0 0 9.02647059 5.07102273"></polygon>
                        </g>
                    </g>
                </g>
                <path d="M0,5.63369187 L0,14.890695 C-4.01383168e-16,15.2394163 0.180615901,15.5632581 0.477309721,15.7465047 L8.45390968,20.6730816 C8.77827115,20.8734166 9.18801402,20.8731604 9.51212472,20.67242 L17.4682691,15.7447219 C17.7626449,15.5623981 17.9425487,15.2414818 17.9444932,14.8952227 L17.9966585,5.60637252 C17.9987194,5.23939904 17.8007649,4.90042593 17.4801394,4.72189577 L9.48934735,0.272477503 C9.18510812,0.103071565 8.81489188,0.103071565 8.51065265,0.272477503 L0.543721053,4.70860987 C0.20808108,4.89550031 -3.88253023e-16,5.24952754 0,5.63369187 Z" id="Path-10" stroke="#000000" stroke-width="0.75"></path>
            </g>
        </g>
    </g>
</svg>